<?xml version="1.0" encoding="utf-8"?>
<!-- Generator: Adobe Illustrator 21.1.0, SVG Export Plug-In . SVG Version: 6.00 Build 0)  -->
<svg version="1.1" id="Layer_1" xmlns="http://www.w3.org/2000/svg" xmlns:xlink="http://www.w3.org/1999/xlink" x="0px" y="0px"
	 viewBox="0 0 200 70" style="enable-background:new 0 0 200 70;" xml:space="preserve">
<style type="text/css">
	.st0{fill:#494949;}
	.st1{fill:#919191;}
</style>
<title>close</title>
<g>
	<g>
		<path d="M51,61H35c-9.9,0-18-8.1-18-18V27c0-9.9,8.1-18,18-18h16c9.9,0,18,8.1,18,18v16C69,52.9,60.9,61,51,61z M35,12
			c-8.3,0-15,6.7-15,15v16c0,8.3,6.7,15,15,15h16c8.3,0,15-6.7,15-15V27c0-8.3-6.7-15-15-15H35z"/>
		<path d="M34.5,46c-0.6,0-1.3-0.2-1.8-0.7c-1-1-1-2.6,0-3.5l17-17c1-1,2.6-1,3.5,0c1,1,1,2.6,0,3.5l-17,17
			C35.8,45.8,35.1,46,34.5,46z"/>
		<path d="M51.5,46c-0.6,0-1.3-0.2-1.8-0.7l-17-17c-1-1-1-2.6,0-3.5c1-1,2.6-1,3.5,0l17,17c1,1,1,2.6,0,3.5
			C52.8,45.8,52.1,46,51.5,46z"/>
	</g>
	<g>
		<path class="st0" d="M108,61H92c-9.9,0-18-8.1-18-18V27c0-9.9,8.1-18,18-18h16c9.9,0,18,8.1,18,18v16C126,52.9,117.9,61,108,61z
			 M92,12c-8.3,0-15,6.7-15,15v16c0,8.3,6.7,15,15,15h16c8.3,0,15-6.7,15-15V27c0-8.3-6.7-15-15-15H92z"/>
		<path class="st0" d="M91.5,46c-0.6,0-1.3-0.2-1.8-0.7c-1-1-1-2.6,0-3.5l17-17c1-1,2.6-1,3.5,0c1,1,1,2.6,0,3.5l-17,17
			C92.8,45.8,92.1,46,91.5,46z"/>
		<path class="st0" d="M108.5,46c-0.6,0-1.3-0.2-1.8-0.7l-17-17c-1-1-1-2.6,0-3.5c1-1,2.6-1,3.5,0l17,17c1,1,1,2.6,0,3.5
			C109.8,45.8,109.1,46,108.5,46z"/>
	</g>
	<g>
		<path class="st1" d="M165,61h-16c-9.9,0-18-8.1-18-18V27c0-9.9,8.1-18,18-18h16c9.9,0,18,8.1,18,18v16C183,52.9,174.9,61,165,61z
			 M149,12c-8.3,0-15,6.7-15,15v16c0,8.3,6.7,15,15,15h16c8.3,0,15-6.7,15-15V27c0-8.3-6.7-15-15-15H149z"/>
		<path class="st1" d="M148.5,46c-0.6,0-1.3-0.2-1.8-0.7c-1-1-1-2.6,0-3.5l17-17c1-1,2.6-1,3.5,0c1,1,1,2.6,0,3.5l-17,17
			C149.8,45.8,149.1,46,148.5,46z"/>
		<path class="st1" d="M165.5,46c-0.6,0-1.3-0.2-1.8-0.7l-17-17c-1-1-1-2.6,0-3.5c1-1,2.6-1,3.5,0l17,17c1,1,1,2.6,0,3.5
			C166.8,45.8,166.1,46,165.5,46z"/>
	</g>
</g>
</svg>
