<?xml version="1.0" encoding="utf-8"?>
<!-- Generator: Adobe Illustrator 21.1.0, SVG Export Plug-In . SVG Version: 6.00 Build 0)  -->
<svg version="1.1" id="Layer_1" xmlns="http://www.w3.org/2000/svg" xmlns:xlink="http://www.w3.org/1999/xlink" x="0px" y="0px"
	 viewBox="0 0 200 70" style="enable-background:new 0 0 200 70;" xml:space="preserve">
<style type="text/css">
	.st0{fill:#494949;}
	.st1{fill:#919191;}
</style>
<g>
	<title>dcto</title>
	<g>
		<path d="M43,19l-3.6,2.7L35,21.1l-1.7,4.1L29.1,27l0.6,4.4L27,35l2.7,3.6L29.1,43l4.1,1.7l1.7,4.1l4.4-0.6L43,51l3.6-2.7l4.4,0.6
			l1.7-4.1l4.1-1.7l-0.6-4.4L59,35l-2.7-3.6l0.6-4.4l-4.1-1.7L51,21.1l-4.4,0.6L43,19z M50.1,27c0.5,0,0.9,0.4,0.9,0.9
			c0,0.3-0.1,0.5-0.3,0.7L36.5,42.7c-0.3,0.4-0.9,0.4-1.3,0c-0.4-0.3-0.4-0.9,0-1.3l0,0l0,0l14.3-14.3c0.1-0.1,0.3-0.2,0.5-0.3H50.1
			z M38.6,27c2,0,3.6,1.6,3.6,3.6s-1.6,3.6-3.6,3.6c-2,0-3.6-1.6-3.6-3.6l0,0C35,28.6,36.6,27,38.6,27z M38.6,28.8
			c-1,0-1.8,0.8-1.8,1.8s0.8,1.8,1.8,1.8s1.8-0.8,1.8-1.8C40.4,29.6,39.6,28.8,38.6,28.8C38.6,28.8,38.6,28.8,38.6,28.8z M47.5,35.9
			c2,0,3.6,1.6,3.6,3.6S49.4,43,47.5,43s-3.6-1.6-3.6-3.6l0,0C43.9,37.5,45.5,35.9,47.5,35.9L47.5,35.9z M47.5,37.7
			c-1,0-1.8,0.8-1.8,1.8s0.8,1.8,1.8,1.8c1,0,1.8-0.8,1.8-1.8l0,0C49.2,38.5,48.5,37.7,47.5,37.7C47.5,37.7,47.5,37.7,47.5,37.7
			L47.5,37.7z"/>
		<path d="M51,61H35c-9.9,0-18-8.1-18-18V27c0-9.9,8.1-18,18-18h16c9.9,0,18,8.1,18,18v16C69,52.9,60.9,61,51,61z M35,12
			c-8.3,0-15,6.7-15,15v16c0,8.3,6.7,15,15,15h16c8.3,0,15-6.7,15-15V27c0-8.3-6.7-15-15-15H35z"/>
	</g>
	<g>
		<path class="st0" d="M100,19l-3.6,2.7L92,21.1l-1.7,4.1L86.1,27l0.6,4.4L84,35l2.7,3.6L86.1,43l4.1,1.7l1.7,4.1l4.4-0.6L100,51
			l3.6-2.7l4.4,0.6l1.7-4.1l4.1-1.7l-0.6-4.4L116,35l-2.7-3.6l0.6-4.4l-4.1-1.7l-1.7-4.1l-4.4,0.6L100,19z M107.1,27
			c0.5,0,0.9,0.4,0.9,0.9c0,0.3-0.1,0.5-0.3,0.7L93.5,42.7c-0.3,0.4-0.9,0.4-1.3,0c-0.4-0.3-0.4-0.9,0-1.3l0,0l0,0l14.3-14.3
			c0.1-0.1,0.3-0.2,0.5-0.3H107.1z M95.6,27c2,0,3.6,1.6,3.6,3.6s-1.6,3.6-3.6,3.6c-2,0-3.6-1.6-3.6-3.6l0,0
			C92,28.6,93.6,27,95.6,27z M95.6,28.8c-1,0-1.8,0.8-1.8,1.8s0.8,1.8,1.8,1.8c1,0,1.8-0.8,1.8-1.8C97.4,29.6,96.6,28.8,95.6,28.8
			C95.6,28.8,95.6,28.8,95.6,28.8z M104.4,35.9c2,0,3.6,1.6,3.6,3.6s-1.6,3.6-3.6,3.6c-2,0-3.6-1.6-3.6-3.6l0,0
			C100.9,37.5,102.5,35.9,104.4,35.9L104.4,35.9z M104.4,37.7c-1,0-1.8,0.8-1.8,1.8s0.8,1.8,1.8,1.8c1,0,1.8-0.8,1.8-1.8l0,0
			C106.2,38.5,105.5,37.7,104.4,37.7C104.5,37.7,104.5,37.7,104.4,37.7L104.4,37.7z"/>
		<path class="st0" d="M108,61H92c-9.9,0-18-8.1-18-18V27c0-9.9,8.1-18,18-18h16c9.9,0,18,8.1,18,18v16C126,52.9,117.9,61,108,61z
			 M92,12c-8.3,0-15,6.7-15,15v16c0,8.3,6.7,15,15,15h16c8.3,0,15-6.7,15-15V27c0-8.3-6.7-15-15-15H92z"/>
	</g>
	<g>
		<path class="st1" d="M157,19l-3.6,2.7l-4.4-0.6l-1.7,4.1l-4.1,1.7l0.6,4.4L141,35l2.7,3.6l-0.6,4.4l4.1,1.7l1.7,4.1l4.4-0.6
			L157,51l3.6-2.7l4.4,0.6l1.7-4.1l4.1-1.7l-0.6-4.4L173,35l-2.7-3.6l0.6-4.4l-4.1-1.7l-1.7-4.1l-4.4,0.6L157,19z M164.1,27
			c0.5,0,0.9,0.4,0.9,0.9c0,0.3-0.1,0.5-0.3,0.7l-14.2,14.2c-0.3,0.4-0.9,0.4-1.3,0c-0.4-0.3-0.4-0.9,0-1.3l0,0l0,0l14.3-14.3
			c0.1-0.1,0.3-0.2,0.5-0.3H164.1z M152.6,27c2,0,3.6,1.6,3.6,3.6s-1.6,3.6-3.6,3.6c-2,0-3.6-1.6-3.6-3.6l0,0
			C149,28.6,150.6,27,152.6,27z M152.6,28.8c-1,0-1.8,0.8-1.8,1.8s0.8,1.8,1.8,1.8s1.8-0.8,1.8-1.8
			C154.4,29.6,153.6,28.8,152.6,28.8C152.6,28.8,152.6,28.8,152.6,28.8z M161.4,35.9c2,0,3.6,1.6,3.6,3.6s-1.6,3.6-3.6,3.6
			c-2,0-3.6-1.6-3.6-3.6l0,0C157.9,37.5,159.5,35.9,161.4,35.9L161.4,35.9z M161.4,37.7c-1,0-1.8,0.8-1.8,1.8s0.8,1.8,1.8,1.8
			c1,0,1.8-0.8,1.8-1.8l0,0C163.2,38.5,162.5,37.7,161.4,37.7C161.5,37.7,161.5,37.7,161.4,37.7L161.4,37.7z"/>
		<path class="st1" d="M165,61h-16c-9.9,0-18-8.1-18-18V27c0-9.9,8.1-18,18-18h16c9.9,0,18,8.1,18,18v16C183,52.9,174.9,61,165,61z
			 M149,12c-8.3,0-15,6.7-15,15v16c0,8.3,6.7,15,15,15h16c8.3,0,15-6.7,15-15V27c0-8.3-6.7-15-15-15H149z"/>
	</g>
</g>
</svg>
