<?xml version="1.0" encoding="utf-8"?>
<!-- Generator: Adobe Illustrator 21.1.0, SVG Export Plug-In . SVG Version: 6.00 Build 0)  -->
<svg version="1.1" id="Layer_1" xmlns="http://www.w3.org/2000/svg" xmlns:xlink="http://www.w3.org/1999/xlink" x="0px" y="0px"
	 viewBox="0 0 200 70" style="enable-background:new 0 0 200 70;" xml:space="preserve">
<style type="text/css">
	.st0{fill:#494949;}
	.st1{fill:#919191;}
</style>
<g>
	<title>gear</title>
	<g>
		<path d="M43.2,16.5l-2.5,4c-1.2,0-2.4,0.1-3.6,0.4l-3.3-3.3l-4.5,2.5l1.1,4.5c-0.9,0.8-1.6,1.8-2.2,2.8h-4.7l-1.4,5l4,2.4
			c0,1.2,0.1,2.4,0.4,3.6l-3.3,3.3l2.5,4.5l4.5-1.1c0.8,0.9,1.8,1.6,2.8,2.2v4.7l5,1.4l2.5-4c1.2,0,2.4-0.1,3.6-0.4l3.3,3.3l4.5-2.5
			L51,45.3c0.9-0.8,1.6-1.8,2.2-2.8h4.7l1.4-5l-4-2.5c0-1.2-0.1-2.4-0.4-3.6l3.3-3.3l-2.5-4.5L51,24.7c-0.8-0.9-1.8-1.6-2.8-2.2
			v-4.7L43.2,16.5z M42.8,27.5c4.2,1.2,6.6,5.5,5.5,9.7c-1.2,4.2-5.5,6.6-9.7,5.5s-6.6-5.5-5.5-9.7c0,0,0,0,0,0
			C34.3,28.7,38.6,26.3,42.8,27.5L42.8,27.5z M42.1,30.2c-2.7-0.7-5.4,0.8-6.2,3.5c-0.7,2.7,0.8,5.4,3.5,6.2
			c2.7,0.7,5.4-0.8,6.2-3.5c0,0,0,0,0,0C46.3,33.7,44.7,30.9,42.1,30.2L42.1,30.2z"/>
		<path d="M48.7,61h-16c-9.9,0-18-8.1-18-18V27c0-9.9,8.1-18,18-18h16c9.9,0,18,8.1,18,18v16C66.7,52.9,58.6,61,48.7,61z M32.7,12
			c-8.3,0-15,6.7-15,15v16c0,8.3,6.7,15,15,15h16c8.3,0,15-6.7,15-15V27c0-8.3-6.7-15-15-15H32.7z"/>
	</g>
	<g>
		<path class="st0" d="M100.2,16.5l-2.5,4c-1.2,0-2.4,0.1-3.6,0.4l-3.3-3.3l-4.5,2.5l1.1,4.5c-0.9,0.8-1.6,1.8-2.2,2.8h-4.7l-1.4,5
			l4,2.4c0,1.2,0.1,2.4,0.4,3.6l-3.3,3.3l2.5,4.5l4.5-1.1c0.8,0.9,1.8,1.6,2.8,2.2v4.7l5,1.4l2.4-4c1.2,0,2.4-0.1,3.6-0.4l3.3,3.3
			l4.5-2.5l-1.1-4.5c0.9-0.8,1.6-1.8,2.2-2.8h4.7l1.4-5l-4-2.5c0-1.2-0.1-2.4-0.4-3.6l3.3-3.3l-2.5-4.5l-4.5,1.1
			c-0.8-0.9-1.8-1.6-2.8-2.2v-4.7L100.2,16.5z M99.8,27.5c4.2,1.2,6.6,5.5,5.5,9.7c-1.2,4.2-5.5,6.6-9.7,5.5s-6.6-5.5-5.5-9.7
			c0,0,0,0,0,0C91.3,28.7,95.6,26.3,99.8,27.5L99.8,27.5z M99.1,30.2c-2.7-0.7-5.4,0.8-6.2,3.5s0.8,5.4,3.5,6.2
			c2.7,0.7,5.4-0.8,6.2-3.5c0,0,0,0,0,0C103.3,33.7,101.7,30.9,99.1,30.2L99.1,30.2z"/>
		<path class="st0" d="M105.7,61h-16c-9.9,0-18-8.1-18-18V27c0-9.9,8.1-18,18-18h16c9.9,0,18,8.1,18,18v16
			C123.7,52.9,115.6,61,105.7,61z M89.7,12c-8.3,0-15,6.7-15,15v16c0,8.3,6.7,15,15,15h16c8.3,0,15-6.7,15-15V27c0-8.3-6.7-15-15-15
			H89.7z"/>
	</g>
	<g>
		<path class="st1" d="M157.2,16.5l-2.4,4c-1.2,0-2.4,0.1-3.6,0.4l-3.3-3.3l-4.5,2.5l1.1,4.5c-0.9,0.8-1.6,1.8-2.2,2.8h-4.7l-1.4,5
			l4,2.4c0,1.2,0.1,2.4,0.4,3.6l-3.3,3.3l2.5,4.5l4.5-1.1c0.8,0.9,1.8,1.6,2.8,2.2v4.7l5,1.4l2.5-4c1.2,0,2.4-0.1,3.6-0.4l3.3,3.3
			l4.5-2.5l-1.1-4.5c0.9-0.8,1.6-1.8,2.2-2.8h4.7l1.4-5l-4-2.5c0-1.2-0.1-2.4-0.4-3.6l3.3-3.3l-2.5-4.5l-4.5,1.1
			c-0.8-0.9-1.8-1.6-2.8-2.2v-4.7L157.2,16.5z M156.8,27.5c4.2,1.2,6.6,5.5,5.5,9.7c-1.2,4.2-5.5,6.6-9.7,5.5s-6.6-5.5-5.5-9.7
			c0,0,0,0,0,0C148.3,28.7,152.6,26.3,156.8,27.5L156.8,27.5z M156.1,30.2c-2.7-0.7-5.4,0.8-6.2,3.5s0.8,5.4,3.5,6.2
			c2.7,0.7,5.4-0.8,6.2-3.5c0,0,0,0,0,0C160.3,33.7,158.7,30.9,156.1,30.2L156.1,30.2z"/>
		<path class="st1" d="M162.7,61h-16c-9.9,0-18-8.1-18-18V27c0-9.9,8.1-18,18-18h16c9.9,0,18,8.1,18,18v16
			C180.7,52.9,172.6,61,162.7,61z M146.7,12c-8.3,0-15,6.7-15,15v16c0,8.3,6.7,15,15,15h16c8.3,0,15-6.7,15-15V27
			c0-8.3-6.7-15-15-15H146.7z"/>
	</g>
</g>
</svg>
