<?xml version="1.0" encoding="utf-8"?>
<!-- Generator: Adobe Illustrator 21.1.0, SVG Export Plug-In . SVG Version: 6.00 Build 0)  -->
<svg version="1.1" id="Layer_1" xmlns="http://www.w3.org/2000/svg" xmlns:xlink="http://www.w3.org/1999/xlink" x="0px" y="0px"
	 viewBox="0 0 200 70" style="enable-background:new 0 0 200 70;" xml:space="preserve">
<style type="text/css">
	.st0{fill:#494949;}
	.st1{fill:#919191;}
</style>
<g>
	<title>print</title>
	<g>
		<path d="M51,61H35c-9.9,0-18-8.1-18-18V27c0-9.9,8.1-18,18-18h16c9.9,0,18,8.1,18,18v16C69,52.9,60.9,61,51,61z M35,12
			c-8.3,0-15,6.7-15,15v16c0,8.3,6.7,15,15,15h16c8.3,0,15-6.7,15-15V27c0-8.3-6.7-15-15-15H35z"/>
		<path d="M60.5,25.5l-0.8-3.1c-0.3-1.1-0.9-2-2-2H28.3c-1.1,0-1.7,0.9-2,2l-0.8,3.1c-0.3,1.3-0.5,2.7-0.5,4.1v9.6
			c0,1.3,1,2.3,2.3,2.3h2.5l0.6-3.9c-1-0.3-1.8-1.2-1.8-2.3c0-1.3,1.1-2.4,2.4-2.4h24.1c1.3,0,2.4,1.1,2.4,2.4c0,1.1-0.7,2-1.8,2.3
			l0.5,3.9h2.5c1.3,0,2.3-1,2.3-2.3v-9.6C61,28.2,60.8,26.8,60.5,25.5z M54.8,25.8c-1.2,0-2.1-0.4-2.1-0.8s0.9-0.8,2.1-0.8
			s2.1,0.4,2.1,0.8S55.9,25.8,54.8,25.8z"/>
		<path d="M52.1,35h-18c-0.6,0.1-1.1,0.6-1.1,1.2l-1.3,12.3c0,0.6,0.4,1.1,1,1.1c0,0,0,0,0.1,0h20.7c0.6,0,1.1-0.5,1.1-1.1
			c0,0,0-0.1,0-0.1l-1.4-12.3C53.2,35.6,52.7,35.1,52.1,35z M49.1,46.3H37.2c-0.5,0.1-1.1-0.2-1.2-0.8c-0.1-0.5,0.2-1.1,0.8-1.2
			c0.1,0,0.3,0,0.4,0h11.9c0.5,0.1,0.9,0.7,0.8,1.2C49.7,45.9,49.5,46.2,49.1,46.3L49.1,46.3z M49.3,41.7H37c-0.4,0-0.8-0.4-0.8-0.8
			c0-0.4,0.3-0.8,0.8-0.8c0,0,0,0,0,0h12.3c0.4,0,0.8,0.3,0.8,0.8c0,0,0,0,0,0C50.1,41.4,49.7,41.7,49.3,41.7
			C49.3,41.7,49.3,41.7,49.3,41.7L49.3,41.7z"/>
	</g>
	<g>
		<path class="st0" d="M108,61H92c-9.9,0-18-8.1-18-18V27c0-9.9,8.1-18,18-18h16c9.9,0,18,8.1,18,18v16C126,52.9,117.9,61,108,61z
			 M92,12c-8.3,0-15,6.7-15,15v16c0,8.3,6.7,15,15,15h16c8.3,0,15-6.7,15-15V27c0-8.3-6.7-15-15-15H92z"/>
		<path class="st0" d="M117.5,25.5l-0.8-3.1c-0.3-1.1-0.9-2-2-2H85.3c-1.1,0-1.7,0.9-1.9,2l-0.8,3.1c-0.3,1.3-0.5,2.7-0.5,4.1v9.6
			c0,1.3,1,2.3,2.3,2.3h2.5l0.6-3.9c-1-0.3-1.8-1.2-1.8-2.3c0-1.3,1.1-2.4,2.4-2.4h24.1c1.3,0,2.4,1.1,2.4,2.4c0,1.1-0.7,2-1.8,2.3
			l0.6,3.9h2.5c1.3,0,2.3-1,2.3-2.3v-9.6C118,28.2,117.8,26.8,117.5,25.5z M111.8,25.8c-1.2,0-2.1-0.4-2.1-0.8s0.9-0.8,2.1-0.8
			c1.2,0,2.1,0.4,2.1,0.8S112.9,25.8,111.8,25.8z"/>
		<path class="st0" d="M109.1,35h-18c-0.6,0.1-1.1,0.6-1.1,1.2l-1.3,12.3c0,0.6,0.4,1.1,1,1.1c0,0,0,0,0.1,0h20.7
			c0.6,0,1.1-0.5,1.1-1.1c0,0,0-0.1,0-0.1l-1.4-12.3C110.2,35.6,109.7,35.1,109.1,35z M106.1,46.3H94.2c-0.5,0.1-1.1-0.2-1.2-0.8
			c-0.1-0.5,0.2-1.1,0.8-1.2c0.1,0,0.3,0,0.4,0h11.9c0.5,0.1,0.9,0.7,0.8,1.2C106.7,45.9,106.5,46.2,106.1,46.3L106.1,46.3z
			 M106.3,41.7H94c-0.4,0-0.8-0.4-0.8-0.8c0-0.4,0.3-0.8,0.8-0.8c0,0,0,0,0,0h12.3c0.4,0,0.8,0.3,0.8,0.8c0,0,0,0,0,0
			C107.1,41.4,106.7,41.7,106.3,41.7C106.3,41.7,106.3,41.7,106.3,41.7L106.3,41.7z"/>
	</g>
	<g>
		<path class="st1" d="M165,61h-16c-9.9,0-18-8.1-18-18V27c0-9.9,8.1-18,18-18h16c9.9,0,18,8.1,18,18v16C183,52.9,174.9,61,165,61z
			 M149,12c-8.3,0-15,6.7-15,15v16c0,8.3,6.7,15,15,15h16c8.3,0,15-6.7,15-15V27c0-8.3-6.7-15-15-15H149z"/>
		<path class="st1" d="M174.5,25.5l-0.8-3.1c-0.3-1.1-0.9-2-2-2h-29.4c-1.1,0-1.7,0.9-1.9,2l-0.8,3.1c-0.3,1.3-0.5,2.7-0.5,4.1v9.6
			c0,1.3,1,2.3,2.3,2.3h2.5l0.6-3.9c-1-0.3-1.8-1.2-1.8-2.3c0-1.3,1.1-2.4,2.4-2.4h24.1c1.3,0,2.4,1.1,2.4,2.4c0,1.1-0.7,2-1.8,2.3
			l0.5,3.9h2.5c1.3,0,2.3-1,2.3-2.3v-9.6C175,28.2,174.8,26.8,174.5,25.5z M168.8,25.8c-1.2,0-2.1-0.4-2.1-0.8s0.9-0.8,2.1-0.8
			c1.2,0,2.1,0.4,2.1,0.8S169.9,25.8,168.8,25.8z"/>
		<path class="st1" d="M166.1,35h-18c-0.6,0.1-1.1,0.6-1.1,1.2l-1.3,12.3c0,0.6,0.4,1.1,1,1.1c0,0,0,0,0.1,0h20.7
			c0.6,0,1.1-0.5,1.1-1.1c0,0,0-0.1,0-0.1l-1.4-12.3C167.2,35.6,166.7,35.1,166.1,35z M163.1,46.3h-11.9c-0.5,0.1-1.1-0.2-1.2-0.8
			c-0.1-0.5,0.2-1.1,0.8-1.2c0.1,0,0.3,0,0.4,0h11.9c0.5,0.1,0.9,0.7,0.8,1.2C163.7,45.9,163.5,46.2,163.1,46.3L163.1,46.3z
			 M163.3,41.7H151c-0.4,0-0.8-0.4-0.8-0.8c0-0.4,0.3-0.8,0.8-0.8c0,0,0,0,0,0h12.3c0.4,0,0.8,0.3,0.8,0.8c0,0,0,0,0,0
			C164.1,41.4,163.7,41.7,163.3,41.7C163.3,41.7,163.3,41.7,163.3,41.7L163.3,41.7z"/>
	</g>
</g>
</svg>
