<?xml version="1.0" encoding="utf-8"?>
<!-- Generator: Adobe Illustrator 21.1.0, SVG Export Plug-In . SVG Version: 6.00 Build 0)  -->
<svg version="1.1" id="Layer_1" xmlns="http://www.w3.org/2000/svg" xmlns:xlink="http://www.w3.org/1999/xlink" x="0px" y="0px"
	 viewBox="0 0 200 70" style="enable-background:new 0 0 200 70;" xml:space="preserve">
<style type="text/css">
	.st0{fill:#494949;}
	.st1{fill:#919191;}
</style>
<g>
	<path d="M44.2,45.7c0-0.6-0.2-1.3-0.5-1.8l2.3-2.3l2.3,2.3c-0.3,0.5-0.5,1.2-0.5,1.8c0,2,1.6,3.6,3.6,3.6s3.6-1.6,3.6-3.6
		s-1.6-3.6-3.6-3.6l0,0c-0.6,0-1.3,0.2-1.8,0.5l-2.3-2.3h10.3c0.5,0,0.9-0.4,0.9-0.9V21.6c0-0.5-0.4-0.9-0.9-0.9H34.4
		c-0.5,0-0.9,0.4-0.9,0.9v0v17.8c0,0.5,0.4,0.9,0.9,0.9h10.3l-2.3,2.3c-0.5-0.3-1.2-0.5-1.8-0.5c-2,0-3.6,1.6-3.6,3.6
		s1.6,3.6,3.6,3.6S44.2,47.7,44.2,45.7L44.2,45.7L44.2,45.7z M53.1,45.7c0,1-0.8,1.8-1.8,1.8c-1,0-1.8-0.8-1.8-1.8
		c0-1,0.8-1.8,1.8-1.8C52.3,43.9,53.1,44.7,53.1,45.7L53.1,45.7z M35.3,38.6V22.5h21.4v16.1H49l4.3-4.3c0.4-0.3,0.5-0.9,0.2-1.2
		s-0.9-0.5-1.2-0.2c-0.1,0-0.1,0.1-0.1,0.1l-5.5,5.5L35.3,38.6z M38.9,45.7c0-1,0.8-1.8,1.8-1.8c1,0,1.8,0.8,1.8,1.8
		c0,1-0.8,1.8-1.8,1.8C39.7,47.5,38.9,46.7,38.9,45.7L38.9,45.7z M45.1,36.8V35h1.8v1.8L45.1,36.8z M46.9,31.4v1.8h-1.8v-1.8
		L46.9,31.4z M46.9,27.8v1.8h-1.8v-1.8L46.9,27.8z M46.9,24.3v1.8h-1.8v-1.8L46.9,24.3z"/>
	<path d="M54,61H38c-9.9,0-18-8.1-18-18V27c0-9.9,8.1-18,18-18h16c9.9,0,18,8.1,18,18v16C72,52.9,63.9,61,54,61z M38,12
		c-8.3,0-15,6.7-15,15v16c0,8.3,6.7,15,15,15h16c8.3,0,15-6.7,15-15V27c0-8.3-6.7-15-15-15H38z"/>
</g>
<g>
	<path class="st0" d="M98.2,45.7c0-0.6-0.2-1.3-0.5-1.8l2.3-2.3l2.3,2.3c-0.3,0.5-0.5,1.2-0.5,1.8c0,2,1.6,3.6,3.6,3.6
		s3.6-1.6,3.6-3.6s-1.6-3.6-3.6-3.6l0,0c-0.6,0-1.3,0.2-1.8,0.5l-2.3-2.3h10.3c0.5,0,0.9-0.4,0.9-0.9V21.6c0-0.5-0.4-0.9-0.9-0.9
		H88.4c-0.5,0-0.9,0.4-0.9,0.9v0v17.8c0,0.5,0.4,0.9,0.9,0.9h10.3l-2.3,2.3c-0.5-0.3-1.2-0.5-1.8-0.5c-2,0-3.6,1.6-3.6,3.6
		s1.6,3.6,3.6,3.6S98.2,47.7,98.2,45.7L98.2,45.7L98.2,45.7z M107.1,45.7c0,1-0.8,1.8-1.8,1.8c-1,0-1.8-0.8-1.8-1.8
		c0-1,0.8-1.8,1.8-1.8C106.3,43.9,107.1,44.7,107.1,45.7L107.1,45.7z M89.3,38.6V22.5h21.4v16.1H103l4.3-4.3
		c0.4-0.3,0.5-0.9,0.2-1.2s-0.9-0.5-1.2-0.2c-0.1,0-0.1,0.1-0.1,0.1l-5.5,5.5L89.3,38.6z M92.9,45.7c0-1,0.8-1.8,1.8-1.8
		c1,0,1.8,0.8,1.8,1.8c0,1-0.8,1.8-1.8,1.8C93.7,47.5,92.9,46.7,92.9,45.7L92.9,45.7z M99.1,36.8V35h1.8v1.8L99.1,36.8z M100.9,31.4
		v1.8h-1.8v-1.8L100.9,31.4z M100.9,27.8v1.8h-1.8v-1.8L100.9,27.8z M100.9,24.3v1.8h-1.8v-1.8L100.9,24.3z"/>
	<path class="st0" d="M108,61H92c-9.9,0-18-8.1-18-18V27c0-9.9,8.1-18,18-18h16c9.9,0,18,8.1,18,18v16C126,52.9,117.9,61,108,61z
		 M92,12c-8.3,0-15,6.7-15,15v16c0,8.3,6.7,15,15,15h16c8.3,0,15-6.7,15-15V27c0-8.3-6.7-15-15-15H92z"/>
</g>
<g>
	<path class="st1" d="M152.2,45.7c0-0.6-0.2-1.3-0.5-1.8l2.3-2.3l2.3,2.3c-0.3,0.5-0.5,1.2-0.5,1.8c0,2,1.6,3.6,3.6,3.6
		c2,0,3.6-1.6,3.6-3.6s-1.6-3.6-3.6-3.6l0,0c-0.6,0-1.3,0.2-1.8,0.5l-2.3-2.3h10.3c0.5,0,0.9-0.4,0.9-0.9V21.6
		c0-0.5-0.4-0.9-0.9-0.9h-23.2c-0.5,0-0.9,0.4-0.9,0.9v0v17.8c0,0.5,0.4,0.9,0.9,0.9h10.4l-2.3,2.3c-0.5-0.3-1.2-0.5-1.8-0.5
		c-2,0-3.6,1.6-3.6,3.6s1.6,3.6,3.6,3.6C150.6,49.3,152.2,47.7,152.2,45.7L152.2,45.7L152.2,45.7z M161.1,45.7c0,1-0.8,1.8-1.8,1.8
		c-1,0-1.8-0.8-1.8-1.8c0-1,0.8-1.8,1.8-1.8C160.3,43.9,161.1,44.7,161.1,45.7L161.1,45.7z M143.3,38.6V22.5h21.4v16.1H157l4.3-4.3
		c0.4-0.3,0.5-0.9,0.2-1.2c-0.3-0.4-0.9-0.5-1.2-0.2c-0.1,0-0.1,0.1-0.1,0.1l-5.5,5.5L143.3,38.6z M146.9,45.7c0-1,0.8-1.8,1.8-1.8
		c1,0,1.8,0.8,1.8,1.8c0,1-0.8,1.8-1.8,1.8C147.7,47.5,146.9,46.7,146.9,45.7L146.9,45.7z M153.1,36.8V35h1.8v1.8L153.1,36.8z
		 M154.9,31.4v1.8h-1.8v-1.8L154.9,31.4z M154.9,27.8v1.8h-1.8v-1.8L154.9,27.8z M154.9,24.3v1.8h-1.8v-1.8L154.9,24.3z"/>
	<path class="st1" d="M162,61h-16c-9.9,0-18-8.1-18-18V27c0-9.9,8.1-18,18-18h16c9.9,0,18,8.1,18,18v16C180,52.9,171.9,61,162,61z
		 M146,12c-8.3,0-15,6.7-15,15v16c0,8.3,6.7,15,15,15h16c8.3,0,15-6.7,15-15V27c0-8.3-6.7-15-15-15H146z"/>
</g>
</svg>
