<?xml version="1.0" encoding="utf-8"?>
<!-- Generator: Adobe Illustrator 21.1.0, SVG Export Plug-In . SVG Version: 6.00 Build 0)  -->
<svg version="1.1" id="Layer_1" xmlns="http://www.w3.org/2000/svg" xmlns:xlink="http://www.w3.org/1999/xlink" x="0px" y="0px"
	 viewBox="0 0 200 70" style="enable-background:new 0 0 200 70;" xml:space="preserve">
<style type="text/css">
	.st0{fill:#494949;}
	.st1{fill:#919191;}
</style>
<g>
	<title>vat</title>
	<g>
		<path d="M23.6,41V29c-0.1-1.4,0.9-2.6,2.3-2.7c1.4-0.1,2.6,0.9,2.7,2.3c0,0.1,0,0.3,0,0.4v12c0.1,1.4-0.9,2.6-2.3,2.7
			c-1.4,0.1-2.6-0.9-2.7-2.3C23.6,41.3,23.6,41.1,23.6,41z"/>
		<path d="M34.1,40.7L30.2,30c-0.1-0.3-0.2-0.6-0.2-0.9c0-1.5,1.2-2.6,2.6-2.6c1.2,0,2.2,0.7,2.5,1.8l3.1,9.5l3.1-9.5
			c0.4-1.4,1.9-2.2,3.3-1.7c1.1,0.3,1.8,1.4,1.8,2.5c0,0.3-0.1,0.6-0.2,0.9l-3.9,10.7c-0.9,2.3-3.4,3.4-5.7,2.6
			C35.5,42.8,34.6,41.9,34.1,40.7z"/>
		<path d="M62.4,41c0,1.4-1.1,2.5-2.5,2.5c-1.1,0-2.1-0.7-2.4-1.8l-0.3-0.9h-6.2l-0.3,0.9c-0.4,1.3-1.8,2.1-3.1,1.7
			c-1-0.3-1.8-1.3-1.8-2.4c0-0.3,0-0.6,0.2-0.9l4-10.8c0.9-2.3,3.4-3.4,5.7-2.6c1.2,0.4,2.1,1.4,2.6,2.6l4,10.8
			C62.4,40.4,62.4,40.7,62.4,41z M55.9,36.7l-1.8-5.5l-1.8,5.5H55.9z"/>
		<path d="M51,61H35c-9.9,0-18-8.1-18-18V27c0-9.9,8.1-18,18-18h16c9.9,0,18,8.1,18,18v16C69,52.9,60.9,61,51,61z M35,12
			c-8.3,0-15,6.7-15,15v16c0,8.3,6.7,15,15,15h16c8.3,0,15-6.7,15-15V27c0-8.3-6.7-15-15-15H35z"/>
	</g>
	<g>
		<path class="st0" d="M80.6,41V29c-0.1-1.4,0.9-2.6,2.3-2.7c1.4-0.1,2.6,0.9,2.7,2.3c0,0.1,0,0.3,0,0.4v12c0.1,1.4-0.9,2.6-2.3,2.7
			c-1.4,0.1-2.6-0.9-2.7-2.3C80.6,41.3,80.6,41.1,80.6,41z"/>
		<path class="st0" d="M91.1,40.7L87.2,30c-0.1-0.3-0.2-0.6-0.2-0.9c0-1.5,1.2-2.6,2.6-2.6c1.2,0,2.2,0.7,2.5,1.8l3.1,9.5l3.1-9.5
			c0.4-1.4,1.9-2.2,3.3-1.7c1.1,0.3,1.8,1.4,1.8,2.5c0,0.3-0.1,0.6-0.2,0.9l-3.9,10.7c-0.9,2.3-3.4,3.4-5.7,2.6
			C92.5,42.8,91.6,41.9,91.1,40.7z"/>
		<path class="st0" d="M119.4,41c0,1.4-1.1,2.5-2.5,2.5c-1.1,0-2.1-0.7-2.4-1.8l-0.3-0.9h-6.2l-0.3,0.9c-0.4,1.3-1.8,2.1-3.1,1.7
			c-1-0.3-1.8-1.3-1.8-2.4c0-0.3,0-0.6,0.2-0.9l4-10.8c0.9-2.3,3.4-3.4,5.7-2.6c1.2,0.4,2.1,1.4,2.6,2.6l4,10.8
			C119.4,40.4,119.4,40.7,119.4,41z M112.9,36.7l-1.8-5.5l-1.8,5.5H112.9z"/>
		<path class="st0" d="M108,61H92c-9.9,0-18-8.1-18-18V27c0-9.9,8.1-18,18-18h16c9.9,0,18,8.1,18,18v16C126,52.9,117.9,61,108,61z
			 M92,12c-8.3,0-15,6.7-15,15v16c0,8.3,6.7,15,15,15h16c8.3,0,15-6.7,15-15V27c0-8.3-6.7-15-15-15H92z"/>
	</g>
	<g>
		<path class="st1" d="M137.6,41V29c-0.1-1.4,0.9-2.6,2.3-2.7c1.4-0.1,2.6,0.9,2.7,2.3c0,0.1,0,0.3,0,0.4v12
			c0.1,1.4-0.9,2.6-2.3,2.7c-1.4,0.1-2.6-0.9-2.7-2.3C137.6,41.3,137.6,41.1,137.6,41z"/>
		<path class="st1" d="M148.1,40.7L144.2,30c-0.1-0.3-0.2-0.6-0.2-0.9c0-1.5,1.2-2.6,2.6-2.6c1.2,0,2.2,0.7,2.5,1.8l3.1,9.5l3.1-9.5
			c0.4-1.4,1.9-2.2,3.3-1.7c1.1,0.3,1.8,1.4,1.8,2.5c0,0.3-0.1,0.6-0.2,0.9l-3.9,10.7c-0.9,2.3-3.4,3.4-5.7,2.6
			C149.5,42.8,148.6,41.9,148.1,40.7z"/>
		<path class="st1" d="M176.4,41c0,1.4-1.1,2.5-2.5,2.5c-1.1,0-2.1-0.7-2.4-1.8l-0.3-0.9h-6.2l-0.3,0.9c-0.4,1.3-1.8,2.1-3.1,1.7
			c-1-0.3-1.8-1.3-1.8-2.4c0-0.3,0-0.6,0.1-0.9l4-10.8c0.9-2.3,3.4-3.4,5.7-2.6c1.2,0.4,2.1,1.4,2.6,2.6l4,10.8
			C176.4,40.4,176.4,40.7,176.4,41z M169.9,36.7l-1.8-5.5l-1.8,5.5H169.9z"/>
		<path class="st1" d="M165,61h-16c-9.9,0-18-8.1-18-18V27c0-9.9,8.1-18,18-18h16c9.9,0,18,8.1,18,18v16C183,52.9,174.9,61,165,61z
			 M149,12c-8.3,0-15,6.7-15,15v16c0,8.3,6.7,15,15,15h16c8.3,0,15-6.7,15-15V27c0-8.3-6.7-15-15-15H149z"/>
	</g>
</g>
</svg>
